HIERARCHY
ROOT Hips
{
	OFFSET 0.00000 0.00000 0.00000
	CHANNELS 6 Xposition Yposition Zposition Zrotation Yrotation Xrotation 
	JOINT LHipJoint
	{
		OFFSET 0 0 0
		CHANNELS 3 Zrotation Yrotation Xrotation
		JOINT LeftHip
		{
			OFFSET 1.54859 -1.61379 0.86856
			CHANNELS 3 Zrotation Yrotation Xrotation
			JOINT LeftKnee
			{
				OFFSET 2.25087 -6.18423 0.00000
				CHANNELS 3 Zrotation Yrotation Xrotation
				JOINT LeftAnkle
				{
					OFFSET 2.40328 -6.60297 0.00000
					CHANNELS 3 Zrotation Yrotation Xrotation
					JOINT LeftToe
					{
						OFFSET 0.17435 -0.47901 2.02453
						CHANNELS 3 Zrotation Yrotation Xrotation
						End Site
						{
							OFFSET 0.00000 -0.00000 1.04844
						}
					}
				}
			}
		}
	}
	JOINT RHipJoint
	{
		OFFSET 0 0 0
		CHANNELS 3 Zrotation Yrotation Xrotation
		JOINT RightHip
		{
			OFFSET -1.54669 -1.61379 0.86856
			CHANNELS 3 Zrotation Yrotation Xrotation
			JOINT RightKnee
			{
				OFFSET -2.28132 -6.26789 0.00000
				CHANNELS 3 Zrotation Yrotation Xrotation
				JOINT RightAnkle
				{
					OFFSET -2.51636 -6.91365 0.00000
					CHANNELS 3 Zrotation Yrotation Xrotation
					JOINT RightToe
					{
						OFFSET -0.15124 -0.41552 2.21090
						CHANNELS 3 Zrotation Yrotation Xrotation
						End Site
						{
							OFFSET -0.00000 -0.00000 1.13399
						}
					}
				}
			}
		}
	}
	JOINT lowerback
	{
		OFFSET 0 0 0
		CHANNELS 3 Zrotation Yrotation Xrotation
		JOINT Chest
		{
			OFFSET -0.04287 2.26161 -0.25690
			CHANNELS 3 Zrotation Yrotation Xrotation
			JOINT Chest2
			{
				OFFSET 0.02248 2.28395 -0.10140
				CHANNELS 3 Zrotation Yrotation Xrotation
				JOINT lowerneck
				{
					OFFSET 0 0 0
					CHANNELS 3 Zrotation Yrotation Xrotation
					JOINT Neck
					{
						OFFSET -0.11644 1.38496 0.11345
						CHANNELS 3 Zrotation Yrotation Xrotation
						JOINT Head
						{
							OFFSET 0.29383 1.36600 0.06642
							CHANNELS 3 Zrotation Yrotation Xrotation
							End Site
							{
								OFFSET 0.11075 1.41395 -0.00294
							}
						}
					}
				}
				JOINT LeftCollar
				{
					OFFSET 0 0 0
					CHANNELS 3 Zrotation Yrotation Xrotation
					JOINT LeftShoulder
					{
						OFFSET 3.51628 0.59542 -0.30346
CHANNELS 3 Zrotation Xrotation Yrotation
						JOINT LeftElbow
						{
OFFSET 0 -4.764050 0.000000
CHANNELS 3 Zrotation Xrotation Yrotation
							JOINT LeftWrist
							{
OFFSET 0 -3.137590 -0.000000
CHANNELS 3 Zrotation Xrotation Yrotation
								JOINT lhand
								{
									OFFSET 0 0 0
CHANNELS 3 Zrotation Xrotation Yrotation
									JOINT LFingers
									{
OFFSET 0 -0.732260 -0.000000
CHANNELS 3 Zrotation Xrotation Yrotation
										End Site
										{
OFFSET 0 -0.590370 -0.000000
										}
									}
								}
								JOINT LThumb
								{
OFFSET 0 0.000000 0.000000
CHANNELS 3 Zrotation Xrotation Yrotation
									End Site
									{
OFFSET 0 -0.599380 0.599380
									}
								}
							}
						}
					}
				}
				JOINT RightCollar
				{
					OFFSET 0 0 0
					CHANNELS 3 Zrotation Yrotation Xrotation
					JOINT RightShoulder
					{
						OFFSET -3.30990 0.84213 -0.36430
CHANNELS 3 Zrotation Xrotation Yrotation
						JOINT RightElbow
						{
OFFSET 0 -5.101610 -0.000000
CHANNELS 3 Zrotation Xrotation Yrotation
							JOINT RightWrist
							{
OFFSET 0 -3.232670 -0.000000
CHANNELS 3 Zrotation Xrotation Yrotation
								JOINT rhand
								{
									OFFSET 0 0 0
CHANNELS 3 Zrotation Xrotation Yrotation
									JOINT RFingers
									{
OFFSET 0 -0.702000 -0.000000
CHANNELS 3 Zrotation Xrotation Yrotation
										End Site
										{
OFFSET 0 -0.565970 -0.000000
										}
									}
								}
								JOINT RThumb
								{
OFFSET 0 0.000000 0.000000
CHANNELS 3 Zrotation Xrotation Yrotation
									End Site
									{
OFFSET 0 -0.574610 0.574610
									}
								}
							}
						}
					}
				}
			}
		}
	}
}
MOTION
Frames: 5
Frame Time: 0.008333333333333333
-35.260500 15.897800 0.864200 177.316000 78.234400 -178.414000 0.000000 0.000000 0.000000 -16.315800 -6.517100 -16.536100 3.142000 10.921500 32.015600 0.721000 -2.431400 -15.399000 0.439000 -4.251500 -11.785200 0.000000 0.000000 0.000000 17.896400 4.067300 -14.548800 -4.090200 -12.279500 36.728100 -1.400200 -14.498900 -31.689300 -0.093000 -1.966700 5.413700 -4.209000 1.659200 7.443300 0.163000 2.490800 8.623400 2.453600 1.195600 4.651300 -15.414900 -10.631100 0.033000 23.681900 -12.149500 -15.687700 9.960000 -6.205500 -1.841200 0.000000 0.000000 0.000000 3.371900 4.066500 -48.459000 96.544000 -59.837600 65.664200 20.642600 -22.072600 -21.030700 0.000000 0.000000 0.000000 -7.125000 0.000000 0.000000 -8.187100 52.133000 1.445700 0.000000 0.000000 0.000000 -3.497300 -0.134900 69.110500 -81.624200 -59.733200 -52.752800 -25.006100 -47.270700 -26.574200 0.000000 0.000000 0.000000 7.125000 0.000000 -0.000000 2.971000 1.118000 2.916400
-35.262662 15.892092 0.857368 176.293836 78.008607 -179.385142 0.000000 0.000000 0.000000 -16.582151 -6.578758 -16.575966 3.127039 10.897978 31.936473 0.707596 -2.458294 -15.245589 0.495470 -4.511538 -12.520604 0.000000 0.000000 0.000000 17.644059 4.015759 -14.617895 -4.116835 -12.314264 36.852887 -1.420436 -14.577422 -31.884134 -0.101734 -2.056204 5.661026 -4.476907 1.677014 7.580107 0.107827 2.508960 8.671914 2.541461 1.195514 4.621811 -15.582320 -10.670447 0.247118 23.944273 -12.192739 -15.860482 10.094299 -6.243896 -1.880374 0.000000 0.000000 0.000000 3.566215 4.129023 -49.276644 95.309275 -59.892340 64.596290 22.957688 -16.947859 -22.977481 0.000000 0.000000 0.000000 -7.125000 0.000000 0.000000 -6.504854 54.593284 1.521973 0.000000 0.000000 0.000000 -3.461325 -0.252596 69.085940 -80.899951 -59.684427 -52.127481 -24.871109 -47.175229 -27.549233 0.000000 0.000000 0.000000 7.125000 0.000000 0.000000 3.188491 0.122731 3.187074
-35.266575 15.884269 0.850245 175.902003 77.778219 -179.772644 0.000000 0.000000 0.000000 -16.705947 -6.710527 -16.629767 3.141115 10.920053 32.010843 0.701415 -2.583167 -15.154919 0.489125 -4.484279 -12.443291 0.000000 0.000000 0.000000 17.546893 3.978591 -14.583760 -4.117060 -12.314520 36.853869 -1.429290 -14.706282 -32.052777 -0.114408 -2.179632 6.002463 -4.611307 1.668857 7.779729 0.090081 2.494218 8.728963 2.593137 1.186016 4.571165 -15.604706 -10.755099 0.445916 24.103122 -12.276467 -16.168960 10.173518 -6.304689 -1.967553 0.000000 0.000000 0.000000 3.637601 3.922343 -49.108814 94.422034 -59.925340 63.828589 23.038021 -15.295700 -25.907548 0.000000 0.000000 0.000000 -7.125000 0.000000 0.000000 -7.655083 57.636477 2.410818 0.000000 0.000000 0.000000 -3.437388 -0.340307 69.063569 -80.243259 -59.636821 -51.560746 -24.707665 -47.027960 -28.514710 0.000000 0.000000 0.000000 7.125000 0.000000 0.000000 3.424731 -0.851673 3.482335
-35.270515 15.880987 0.841284 176.000240 77.573187 -179.622270 0.000000 0.000000 0.000000 -16.718630 -6.797224 -16.771079 3.162355 10.953314 32.122639 0.698058 -2.726855 -15.092817 0.498180 -4.524892 -12.558380 0.000000 0.000000 0.000000 17.541784 3.858860 -14.637527 -4.109419 -12.304577 36.818056 -1.424090 -14.800968 -32.105010 -0.111528 -2.152328 5.926894 -4.543198 1.671397 7.904044 0.024296 2.507432 8.795262 2.483462 1.201518 4.577100 -15.530376 -10.864493 0.585472 24.289616 -12.383213 -16.433351 10.237654 -6.379024 -2.031358 0.000000 0.000000 0.000000 3.859862 3.652095 -48.884555 93.645142 -59.949020 63.156235 23.396281 -13.425133 -29.806103 0.000000 0.000000 0.000000 -7.125000 0.000000 0.000000 -9.388568 61.704817 3.892276 0.000000 0.000000 0.000000 -3.207788 -0.501328 68.940450 -79.470892 -59.576059 -50.894562 -24.412654 -46.393966 -28.511390 0.000000 0.000000 0.000000 7.125000 0.000000 0.000000 3.596931 -0.784877 3.652530
-35.274228 15.882336 0.831420 176.367945 77.429482 -179.178114 0.000000 0.000000 0.000000 -16.662243 -6.778672 -16.990429 3.188906 10.994659 32.261887 0.694550 -2.867948 -15.030893 0.543780 -4.721440 -13.116372 0.000000 0.000000 0.000000 17.589031 3.701587 -14.740784 -4.094411 -12.284960 36.747616 -1.398900 -14.896196 -32.035550 -0.098620 -2.023041 5.569426 -4.414719 1.697799 8.010461 -0.025370 2.552624 8.844068 2.355523 1.235343 4.572783 -15.501351 -10.961629 0.661763 24.445635 -12.497522 -16.536356 10.285339 -6.449690 -2.036908 0.000000 0.000000 0.000000 4.101421 3.478648 -48.732202 92.946038 -59.966621 62.551070 23.629830 -12.310207 -31.759232 0.000000 0.000000 0.000000 -7.125000 0.000000 0.000000 -10.280953 63.743265 4.696567 0.000000 0.000000 0.000000 -2.954423 -0.697410 68.862753 -78.627611 -59.504667 -50.167669 -23.548506 -45.291591 -27.382035 0.000000 0.000000 0.000000 7.125000 0.000000 0.000000 3.956297 0.570333 3.918686
